<svg preserveAspectRatio="none" width="100%" height="100%" overflow="visible" style="display: block;" viewBox="0 0 10.8132 10.9183" fill="none" xmlns="http://www.w3.org/2000/svg">
<path id="Search icon" d="M0 4.41602C0 3.80729 0.114366 3.2373 0.343099 2.70605C0.571832 2.17112 0.889106 1.70074 1.29492 1.29492C1.70074 0.889106 2.16927 0.571832 2.70052 0.343099C3.23546 0.114366 3.80729 0 4.41602 0C5.02474 0 5.59473 0.114366 6.12598 0.343099C6.66092 0.571832 7.13129 0.889106 7.53711 1.29492C7.94293 1.70074 8.2602 2.17112 8.48893 2.70605C8.71767 3.2373 8.83203 3.80729 8.83203 4.41602C8.83203 4.92144 8.75087 5.40104 8.58854 5.85482C8.4299 6.30859 8.20855 6.71994 7.92448 7.08887L10.6305 9.81152C10.6896 9.87055 10.7338 9.9388 10.7633 10.0163C10.7965 10.0937 10.8132 10.1768 10.8132 10.2653C10.8132 10.387 10.7855 10.4977 10.7301 10.5973C10.6785 10.6969 10.6047 10.7744 10.5088 10.8298C10.4129 10.8888 10.3022 10.9183 10.1768 10.9183C10.0882 10.9183 10.0034 10.9017 9.9222 10.8685C9.84473 10.839 9.77279 10.7929 9.70638 10.7301L6.98372 8.00195C6.62218 8.2602 6.22374 8.46311 5.78841 8.61068C5.35308 8.75825 4.89562 8.83203 4.41602 8.83203C3.80729 8.83203 3.23546 8.71766 2.70052 8.48893C2.16927 8.2602 1.70074 7.94292 1.29492 7.53711C0.889106 7.13129 0.571832 6.66276 0.343099 6.13151C0.114366 5.59657 0 5.02474 0 4.41602ZM0.946289 4.41602C0.946289 4.89562 1.03483 5.3457 1.21191 5.76628C1.39269 6.18316 1.64171 6.55024 1.95898 6.86751C2.27995 7.18479 2.64887 7.43381 3.06576 7.61458C3.48633 7.79536 3.93642 7.88574 4.41602 7.88574C4.89562 7.88574 5.34386 7.79536 5.76074 7.61458C6.18132 7.43381 6.55024 7.18479 6.86751 6.86751C7.18479 6.55024 7.43381 6.18316 7.61458 5.76628C7.79536 5.3457 7.88574 4.89562 7.88574 4.41602C7.88574 3.93641 7.79536 3.48817 7.61458 3.07129C7.43381 2.65072 7.18479 2.28179 6.86751 1.96452C6.55024 1.64355 6.18132 1.39453 5.76074 1.21745C5.34386 1.03668 4.89562 0.946289 4.41602 0.946289C3.93642 0.946289 3.48633 1.03668 3.06576 1.21745C2.64887 1.39453 2.27995 1.64355 1.95898 1.96452C1.64171 2.28179 1.39269 2.65072 1.21191 3.07129C1.03483 3.48817 0.946289 3.93641 0.946289 4.41602Z" fill="var(--fill-0, #5C5B57)"/>
</svg>
